<svg width="142" height="65" viewBox="0 0 142 65" fill="none" xmlns="http://www.w3.org/2000/svg">
<path d="M52.6974 16.3755C51.9337 16.3755 51.2549 16.1208 50.6609 15.6114C44.4663 9.83835 36.4049 6.61225 27.9192 6.61225C19.6032 6.61225 11.6266 9.75346 5.43202 15.3567C4.24402 16.4604 2.37716 16.3755 1.27401 15.1869C0.170869 13.9984 0.255724 12.1306 1.44372 11.027C8.65658 4.40491 18.0757 0.669392 27.9192 0.669392C37.9323 0.669392 47.4363 4.4049 54.734 11.2816C55.922 12.3853 56.0069 14.2531 54.9037 15.4417C54.3097 16.1208 53.4612 16.3755 52.6974 16.3755Z" fill="#060000"/>
<path d="M88.8466 16.3755C88.0829 16.3755 87.2343 16.0359 86.6403 15.4416C85.5372 14.2531 85.5371 12.3853 86.81 11.2816C94.1077 4.40488 103.612 0.669373 113.625 0.669373C123.468 0.669373 132.887 4.31999 140.1 11.0269C141.288 12.1306 141.373 13.9983 140.27 15.1869C139.167 16.3755 137.3 16.4604 136.112 15.3567C130.002 9.75344 122.026 6.61223 113.625 6.61223C105.139 6.61223 97.0777 9.83833 90.8831 15.6114C90.2891 16.1208 89.6103 16.3755 88.8466 16.3755Z" fill="#060000"/>
<path d="M21.3003 64.3429C20.1972 64.3429 19.094 63.6638 18.5849 62.5601C17.906 61.0319 18.5849 59.334 20.1123 58.6548C20.5366 58.485 29.2769 54.7495 40.6477 55.5985C36.9989 51.0989 30.2952 45.156 19.6032 43.6278C17.9909 43.3731 16.8877 41.9299 17.0574 40.2319C17.2272 38.5339 18.7546 37.5152 20.4517 37.685C41.1569 40.6564 49.1334 57.5511 49.4729 58.3152C49.982 59.334 49.8123 60.6074 49.0486 61.4564C48.2849 62.3054 47.1817 62.7299 46.0786 62.4752C33.4349 59.334 22.658 64.0034 22.4883 64.0883C22.1489 64.2581 21.7246 64.3429 21.3003 64.3429Z" fill="#060000"/>
<path d="M120.159 64.3428C119.735 64.3428 119.395 64.2579 118.971 64.0881C118.886 64.0032 108.024 59.4187 95.3806 62.4751C94.2775 62.7298 93.0895 62.3902 92.4106 61.4563C91.6469 60.6073 91.562 59.3339 91.9863 58.3151C92.3257 57.6359 100.302 40.6563 121.007 37.6848C122.62 37.4302 124.147 38.6187 124.402 40.2318C124.656 41.8448 123.468 43.373 121.856 43.6277C111.249 45.1559 104.545 51.0988 100.896 55.5983C112.267 54.6645 120.923 58.4 121.347 58.6547C122.874 59.3338 123.553 61.0318 122.874 62.56C122.45 63.7486 121.347 64.3428 120.159 64.3428Z" fill="#060000"/>
</svg>
