<svg width="142" height="68" viewBox="0 0 142 68" fill="none" xmlns="http://www.w3.org/2000/svg">
<path d="M28.5023 16.4122C18.4891 16.4122 8.98511 12.6767 1.6874 5.79995C0.4994 4.69628 0.414558 2.8285 1.5177 1.63993C2.62084 0.451357 4.4877 0.366501 5.6757 1.47017C11.8703 7.24324 19.9317 10.4693 28.4174 10.4693C36.7334 10.4693 44.71 7.32812 50.9045 1.72486C52.0925 0.621184 53.9594 0.706092 55.0626 1.89466C56.1657 3.08324 56.0808 4.95096 54.8928 6.05463C47.7648 12.7616 38.3457 16.4122 28.5023 16.4122Z" fill="#060000"/>
<path d="M113.614 16.4122C103.771 16.4122 94.3514 12.7616 87.1386 6.05468C85.9506 4.95101 85.8657 3.08329 86.9688 1.89471C88.072 0.706143 89.9389 0.621235 91.1269 1.72491C97.2366 7.32817 105.213 10.4694 113.614 10.4694C122.1 10.4694 130.161 7.24329 136.356 1.47022C137.544 0.366551 139.411 0.36651 140.514 1.63998C141.617 2.82855 141.617 4.69633 140.344 5.8C133.131 12.6767 123.627 16.4122 113.614 16.4122Z" fill="#060000"/>
<path d="M28.2477 67.2661C43.2446 67.2661 55.402 55.1029 55.402 40.0987C55.402 25.0946 43.2446 12.9314 28.2477 12.9314C13.2508 12.9314 1.09344 25.0946 1.09344 40.0987C1.09344 55.1029 13.2508 67.2661 28.2477 67.2661Z" fill="#060000"/>
<path d="M32.9148 40.0988C39.1479 40.0988 44.2008 35.0434 44.2008 28.8073C44.2008 22.5712 39.1479 17.5159 32.9148 17.5159C26.6817 17.5159 21.6288 22.5712 21.6288 28.8073C21.6288 35.0434 26.6817 40.0988 32.9148 40.0988Z" fill="#FFFEFF"/>
<path d="M20.356 53.0882C22.5118 53.0882 24.2594 51.3397 24.2594 49.1828C24.2594 47.026 22.5118 45.2775 20.356 45.2775C18.2001 45.2775 16.4525 47.026 16.4525 49.1828C16.4525 51.3397 18.2001 53.0882 20.356 53.0882Z" fill="#FFFEFF"/>
<path d="M113.953 67.2661C128.95 67.2661 141.108 55.1029 141.108 40.0987C141.108 25.0946 128.95 12.9314 113.953 12.9314C98.9565 12.9314 86.7991 25.0946 86.7991 40.0987C86.7991 55.1029 98.9565 67.2661 113.953 67.2661Z" fill="#060000"/>
<path d="M109.286 40.0988C115.519 40.0988 120.572 35.0434 120.572 28.8073C120.572 22.5712 115.519 17.5159 109.286 17.5159C103.053 17.5159 98.0002 22.5712 98.0002 28.8073C98.0002 35.0434 103.053 40.0988 109.286 40.0988Z" fill="#FFFEFF"/>
<path d="M121.76 53.0882C123.916 53.0882 125.664 51.3397 125.664 49.1828C125.664 47.026 123.916 45.2775 121.76 45.2775C119.604 45.2775 117.857 47.026 117.857 49.1828C117.857 51.3397 119.604 53.0882 121.76 53.0882Z" fill="#FFFEFF"/>
</svg>
