<svg width="141" height="92" viewBox="0 0 141 92" fill="none" xmlns="http://www.w3.org/2000/svg">
<path d="M27.4957 91.2229C42.4926 91.2229 54.65 79.0596 54.65 64.0555C54.65 49.0514 42.4926 36.8882 27.4957 36.8882C12.4988 36.8882 0.341415 49.0514 0.341415 64.0555C0.341415 79.0596 12.4988 91.2229 27.4957 91.2229Z" fill="#060000"/>
<path d="M52.274 29.3322C51.5103 29.3322 50.8314 29.0775 50.2374 28.5682C44.0428 22.7951 35.9814 19.569 27.4957 19.569C19.1797 19.569 11.2031 22.7102 5.00857 28.3135C3.82057 29.4172 1.95371 29.3322 0.850572 28.1437C-0.252571 26.9551 -0.16773 25.0873 1.02027 23.9837C8.23313 17.3616 17.6523 13.6261 27.4957 13.6261C37.5089 13.6261 47.0129 17.3616 54.3106 24.2384C55.4986 25.342 55.5834 27.2098 54.4803 28.3984C53.8863 29.0776 53.0377 29.3322 52.274 29.3322Z" fill="#060000"/>
<path d="M32.1628 64.0555C38.3959 64.0555 43.4488 59.0002 43.4488 52.7641C43.4488 46.528 38.3959 41.4727 32.1628 41.4727C25.9298 41.4727 20.8768 46.528 20.8768 52.7641C20.8768 59.0002 25.9298 64.0555 32.1628 64.0555Z" fill="#FFFEFF"/>
<path d="M19.6888 77.0449C21.8446 77.0449 23.5923 75.2964 23.5923 73.1396C23.5923 70.9828 21.8446 69.2343 19.6888 69.2343C17.533 69.2343 15.7854 70.9828 15.7854 73.1396C15.7854 75.2964 17.533 77.0449 19.6888 77.0449Z" fill="#FFFEFF"/>
<path d="M113.201 91.2229C128.198 91.2229 140.356 79.0596 140.356 64.0555C140.356 49.0514 128.198 36.8882 113.201 36.8882C98.2045 36.8882 86.0471 49.0514 86.0471 64.0555C86.0471 79.0596 98.2045 91.2229 113.201 91.2229Z" fill="#060000"/>
<path d="M88.4231 16.5127C87.6594 16.5127 86.8108 16.1731 86.2168 15.5788C85.1137 14.3902 85.1137 12.5225 86.3866 11.4188C93.6843 4.54206 103.188 0.806549 113.201 0.806549C123.045 0.806549 132.464 4.45715 139.677 11.1641C140.865 12.2678 140.95 14.1355 139.847 15.3241C138.743 16.5127 136.877 16.5976 135.689 15.4939C129.579 9.89062 121.602 6.74941 113.201 6.74941C104.716 6.74941 96.6543 9.97551 90.4597 15.7486C89.8657 16.258 89.1868 16.5127 88.4231 16.5127Z" fill="#060000"/>
<path d="M108.534 64.0555C114.767 64.0555 119.82 59.0002 119.82 52.7641C119.82 46.528 114.767 41.4727 108.534 41.4727C102.301 41.4727 97.2483 46.528 97.2483 52.7641C97.2483 59.0002 102.301 64.0555 108.534 64.0555Z" fill="#FFFEFF"/>
<path d="M121.093 77.0449C123.249 77.0449 124.997 75.2964 124.997 73.1396C124.997 70.9828 123.249 69.2343 121.093 69.2343C118.937 69.2343 117.19 70.9828 117.19 73.1396C117.19 75.2964 118.937 77.0449 121.093 77.0449Z" fill="#FFFEFF"/>
</svg>
