<svg width="153" height="59" viewBox="0 0 153 59" fill="none" xmlns="http://www.w3.org/2000/svg">
<path d="M58.6974 20.9633C57.764 20.9633 56.8306 20.5388 56.2366 19.6898C50.042 11.0302 42.1503 6.27594 33.9192 6.27594C25.7729 6.27594 17.966 10.9453 11.8563 19.3502C10.9229 20.7086 9.05601 20.9633 7.6983 20.0294C6.34058 19.0955 6.08601 17.2278 7.01944 15.8694C14.3172 5.85144 23.8212 0.333084 33.9192 0.333084C44.1869 0.333084 53.7757 6.02124 61.0735 16.2939C62.0069 17.6523 61.7523 19.52 60.3946 20.4539C59.8854 20.7935 59.2914 20.9633 58.6974 20.9633Z" fill="#060000"/>
<path d="M94.8466 20.9633C94.2526 20.9633 93.6586 20.7935 93.1494 20.4539C91.7917 19.52 91.5372 17.6523 92.4706 16.2939C99.7683 6.02124 109.442 0.333084 119.625 0.333084C129.723 0.333084 139.227 5.85144 146.525 15.8694C147.458 17.2278 147.203 19.0955 145.846 20.0294C144.488 20.9633 142.621 20.7086 141.688 19.3502C135.578 10.9453 127.686 6.27594 119.625 6.27594C111.394 6.27594 103.417 11.0302 97.3074 19.6898C96.7134 20.5388 95.78 20.9633 94.8466 20.9633Z" fill="#060000"/>
<path d="M55.5577 58.4882C54.2 58.4882 52.9271 57.5543 52.6726 56.111C50.3814 45.5837 42.6594 38.1976 33.9192 38.1976C25.1789 38.1976 17.4569 45.5837 15.1657 56.111C14.996 57.0449 14.402 57.809 13.5534 58.1486C12.7049 58.5731 11.7714 58.5731 10.9229 58.1486L2.18258 53.7339C0.740004 52.9698 0.146004 51.1869 0.909718 49.7437C1.67343 48.3004 3.45543 47.7061 4.898 48.4702L10.4137 51.2719C14.2323 39.9804 23.4817 32.3396 33.9192 32.3396C45.4597 32.3396 55.5577 41.6784 58.4429 54.9225C58.7823 56.5355 57.764 58.1486 56.1517 58.4882C55.982 58.4882 55.7274 58.4882 55.5577 58.4882Z" fill="#060000"/>
<path d="M97.8166 58.4882C97.6469 58.4882 97.3923 58.4882 97.2226 58.4033C95.6103 58.0637 94.592 56.4506 94.9314 54.8375C97.8166 41.5086 107.915 32.2547 119.455 32.2547C129.977 32.2547 139.227 39.8955 142.961 51.1869L148.476 48.3853C149.919 47.6212 151.701 48.2155 152.465 49.6588C153.228 51.102 152.634 52.8849 151.192 53.649L142.451 58.0637C141.603 58.4882 140.669 58.4882 139.821 58.0637C138.972 57.6392 138.378 56.8751 138.209 56.0261C135.917 45.4988 128.195 38.1127 119.455 38.1127C110.715 38.1127 102.993 45.4988 100.702 56.0261C100.447 57.5543 99.2592 58.4882 97.8166 58.4882Z" fill="#060000"/>
</svg>
