<svg width="142" height="85" viewBox="0 0 142 85" fill="none" xmlns="http://www.w3.org/2000/svg">
<path d="M28.46 84.0596C43.4569 84.0596 55.6143 71.8964 55.6143 56.8922C55.6143 41.8881 43.4569 29.7249 28.46 29.7249C13.4631 29.7249 1.30572 41.8881 1.30572 56.8922C1.30572 71.8964 13.4631 84.0596 28.46 84.0596Z" fill="#060000"/>
<path d="M20.6532 23.1878C14.2889 23.1878 7.92459 21.5747 2.1543 18.5184C0.711733 17.7543 0.202569 15.9714 0.966284 14.5282C1.73 13.0849 3.51206 12.5755 4.95463 13.3396C12.4221 17.3298 21.0775 18.3486 29.2238 16.1412C37.2852 14.0188 44.1586 8.9249 48.6561 1.87837C49.5046 0.519999 51.3714 0.09551 52.7291 0.94449C54.0869 1.79347 54.5111 3.66122 53.6625 5.01959C48.4014 13.3396 40.2551 19.2824 30.7511 21.8294C27.4417 22.7633 24.0475 23.1878 20.6532 23.1878Z" fill="#060000"/>
<path d="M33.1271 56.8922C39.3602 56.8922 44.4132 51.8369 44.4132 45.6008C44.4132 39.3647 39.3602 34.3094 33.1271 34.3094C26.8941 34.3094 21.8411 39.3647 21.8411 45.6008C21.8411 51.8369 26.8941 56.8922 33.1271 56.8922Z" fill="#FFFEFF"/>
<path d="M20.5682 69.8816C22.7241 69.8816 24.4718 68.1332 24.4718 65.9763C24.4718 63.8195 22.7241 62.071 20.5682 62.071C18.4124 62.071 16.6648 63.8195 16.6648 65.9763C16.6648 68.1332 18.4124 69.8816 20.5682 69.8816Z" fill="#FFFEFF"/>
<path d="M114.166 84.0596C129.163 84.0596 141.32 71.8964 141.32 56.8922C141.32 41.8881 129.163 29.7249 114.166 29.7249C99.1688 29.7249 87.0114 41.8881 87.0114 56.8922C87.0114 71.8964 99.1688 84.0596 114.166 84.0596Z" fill="#060000"/>
<path d="M89.3875 22.169C88.6238 22.169 87.7751 21.8294 87.1811 21.2351C86.078 20.0465 86.078 18.1788 87.3509 17.0751C94.6486 10.1984 104.153 6.46286 114.166 6.46286C124.009 6.46286 133.428 10.1135 140.641 16.8204C141.829 17.9241 141.914 19.7918 140.811 20.9804C139.708 22.169 137.841 22.2539 136.653 21.1502C130.543 15.5469 122.567 12.4057 114.166 12.4057C105.68 12.4057 97.6185 15.6318 91.424 21.4049C90.83 21.9143 90.1512 22.169 89.3875 22.169Z" fill="#060000"/>
<path d="M109.499 56.8922C115.732 56.8922 120.785 51.8369 120.785 45.6008C120.785 39.3647 115.732 34.3094 109.499 34.3094C103.265 34.3094 98.2125 39.3647 98.2125 45.6008C98.2125 51.8369 103.265 56.8922 109.499 56.8922Z" fill="#FFFEFF"/>
<path d="M121.973 69.8816C124.128 69.8816 125.876 68.1332 125.876 65.9763C125.876 63.8195 124.128 62.071 121.973 62.071C119.817 62.071 118.069 63.8195 118.069 65.9763C118.069 68.1332 119.817 69.8816 121.973 69.8816Z" fill="#FFFEFF"/>
</svg>
