<svg width="142" height="84" viewBox="0 0 142 84" fill="none" xmlns="http://www.w3.org/2000/svg">
<path d="M28.2383 83.0596C43.2352 83.0596 55.3926 70.8964 55.3926 55.8923C55.3926 40.8881 43.2352 28.7249 28.2383 28.7249C13.2414 28.7249 1.08398 40.8881 1.08398 55.8923C1.08398 70.8964 13.2414 83.0596 28.2383 83.0596Z" fill="#060000"/>
<path d="M32.9054 55.8923C39.1385 55.8923 44.1914 50.8369 44.1914 44.6008C44.1914 38.3647 39.1385 33.3094 32.9054 33.3094C26.6724 33.3094 21.6194 38.3647 21.6194 44.6008C21.6194 50.8369 26.6724 55.8923 32.9054 55.8923Z" fill="#FFFEFF"/>
<path d="M20.4314 68.8816C22.5872 68.8816 24.3348 67.1332 24.3348 64.9763C24.3348 62.8195 22.5872 61.071 20.4314 61.071C18.2756 61.071 16.528 62.8195 16.528 64.9763C16.528 67.1332 18.2756 68.8816 20.4314 68.8816Z" fill="#FFFEFF"/>
<path d="M113.944 83.0596C128.941 83.0596 141.098 70.8964 141.098 55.8923C141.098 40.8881 128.941 28.7249 113.944 28.7249C98.9471 28.7249 86.7897 40.8881 86.7897 55.8923C86.7897 70.8964 98.9471 83.0596 113.944 83.0596Z" fill="#060000"/>
<path d="M89.1657 16.2449C88.402 16.2449 87.5535 15.9053 86.9595 15.311C85.8563 14.1225 85.8563 12.2547 87.1291 11.151C94.4268 4.2743 103.931 0.538788 113.944 0.538788C123.787 0.538788 133.207 4.1894 140.419 10.8963C141.607 12 141.692 13.8678 140.589 15.0563C139.486 16.2449 137.619 16.3298 136.431 15.2261C130.321 9.62287 122.345 6.48165 113.944 6.48165C105.458 6.48165 97.3969 9.70777 91.2023 15.4808C90.6932 15.9902 89.9294 16.2449 89.1657 16.2449Z" fill="#060000"/>
<path d="M109.277 55.8923C115.51 55.8923 120.563 50.8369 120.563 44.6008C120.563 38.3647 115.51 33.3094 109.277 33.3094C103.044 33.3094 97.9909 38.3647 97.9909 44.6008C97.9909 50.8369 103.044 55.8923 109.277 55.8923Z" fill="#FFFEFF"/>
<path d="M121.836 68.8816C123.992 68.8816 125.739 67.1332 125.739 64.9763C125.739 62.8195 123.992 61.071 121.836 61.071C119.68 61.071 117.932 62.8195 117.932 64.9763C117.932 67.1332 119.68 68.8816 121.836 68.8816Z" fill="#FFFEFF"/>
<path d="M53.0167 16.2449C52.2529 16.2449 51.5741 15.9902 50.9801 15.4808C44.7855 9.70777 36.7241 6.48165 28.2384 6.48165C19.9224 6.48165 11.9458 9.62287 5.75121 15.2261C4.56321 16.3298 2.69633 16.2449 1.59319 15.0563C0.490047 13.8678 0.574914 12 1.76291 10.8963C8.97577 4.2743 18.3949 0.538788 28.2384 0.538788C38.2515 0.538788 47.7555 4.2743 55.0532 11.151C56.2412 12.2547 56.3261 14.1225 55.2229 15.311C54.6289 15.9902 53.8652 16.2449 53.0167 16.2449Z" fill="#060000"/>
</svg>
