<svg width="160" height="68" viewBox="0 0 160 68" fill="none" xmlns="http://www.w3.org/2000/svg">
<path d="M62.2806 21.8392C61.3471 21.8392 60.4137 21.4147 59.8197 20.4808C53.7948 11.3967 45.988 6.38777 37.9265 6.38777C30.0348 6.38777 22.3128 11.227 16.3728 20.0563C15.4394 21.4147 13.5726 21.7543 12.2148 20.8204C10.8571 19.8865 10.5177 18.0188 11.4511 16.6604C18.5791 6.13307 27.9983 0.360016 37.9265 0.360016C48.0245 0.360016 57.5286 6.30287 64.7414 17.0849C65.6748 18.4433 65.2506 20.311 63.8928 21.2449C63.4686 21.6694 62.8746 21.8392 62.2806 21.8392Z" fill="#060000"/>
<path d="M97.8357 21.8392C97.2417 21.8392 96.7326 21.6694 96.2234 21.3298C94.8657 20.3959 94.5263 18.6131 95.3748 17.1698C102.503 6.38777 112.007 0.444913 122.105 0.444913C132.033 0.444913 141.452 6.21797 148.58 16.7453C149.514 18.1037 149.174 19.9714 147.817 20.9053C146.459 21.8392 144.592 21.4996 143.659 20.1412C137.634 11.3118 129.997 6.47267 122.105 6.47267C114.043 6.47267 106.321 11.4816 100.212 20.5657C99.7026 21.3298 98.7692 21.8392 97.8357 21.8392Z" fill="#060000"/>
<path d="M60.1592 67.9388H11.2814C10.5177 67.9388 9.75402 67.5992 9.16002 67.0898L1.01373 58.9396C-0.174274 57.751 -0.174274 55.8833 1.01373 54.6947C2.20173 53.5061 4.06858 53.5061 5.25658 54.6947L12.5543 61.9959H60.1592C61.7715 61.9959 63.1292 63.3543 63.1292 64.9674C63.1292 66.5804 61.8563 67.9388 60.1592 67.9388Z" fill="#060000"/>
<path d="M148.835 67.9388H99.9572C98.3449 67.9388 96.9872 66.5804 96.9872 64.9674C96.9872 63.3543 98.3449 61.9959 99.9572 61.9959H147.562L154.86 54.6947C156.048 53.5061 157.915 53.5061 159.103 54.6947C160.291 55.8833 160.291 57.751 159.103 58.9396L150.956 67.0898C150.362 67.5992 149.599 67.9388 148.835 67.9388Z" fill="#060000"/>
</svg>
