<svg width="142" height="79" viewBox="0 0 142 79" fill="none" xmlns="http://www.w3.org/2000/svg">
<path d="M27.9192 78.0596C42.9161 78.0596 55.0734 65.8964 55.0734 50.8922C55.0734 35.8881 42.9161 23.7249 27.9192 23.7249C12.9223 23.7249 0.764873 35.8881 0.764873 50.8922C0.764873 65.8964 12.9223 78.0596 27.9192 78.0596Z" fill="#060000"/>
<path d="M52.6974 16.169C51.9337 16.169 51.2549 15.9143 50.6609 15.4049C44.4663 9.63183 36.4049 6.40572 27.9192 6.40572C19.6032 6.40572 11.6266 9.54695 5.43202 15.1502C4.24402 16.2539 2.37716 16.169 1.27401 14.9804C0.170869 13.7918 0.255724 11.9241 1.44372 10.8204C8.65658 4.19837 18.0757 0.46286 27.9192 0.46286C37.9323 0.46286 47.4363 4.19837 54.734 11.0751C55.922 12.1788 56.0069 14.0465 54.9037 15.2351C54.2249 15.8294 53.4612 16.169 52.6974 16.169Z" fill="#060000"/>
<path d="M32.5863 50.8922C38.8194 50.8922 43.8723 45.8369 43.8723 39.6008C43.8723 33.3647 38.8194 28.3094 32.5863 28.3094C26.3532 28.3094 21.3003 33.3647 21.3003 39.6008C21.3003 45.8369 26.3532 50.8922 32.5863 50.8922Z" fill="#FFFEFF"/>
<path d="M20.0274 63.8816C22.1832 63.8816 23.9309 62.1332 23.9309 59.9763C23.9309 57.8195 22.1832 56.071 20.0274 56.071C17.8716 56.071 16.124 57.8195 16.124 59.9763C16.124 62.1332 17.8716 63.8816 20.0274 63.8816Z" fill="#FFFEFF"/>
<path d="M113.625 78.0596C128.622 78.0596 140.779 65.8964 140.779 50.8922C140.779 35.8881 128.622 23.7249 113.625 23.7249C98.628 23.7249 86.4706 35.8881 86.4706 50.8922C86.4706 65.8964 98.628 78.0596 113.625 78.0596Z" fill="#060000"/>
<path d="M88.8466 16.169C88.0829 16.169 87.2343 15.8294 86.6403 15.2351C85.5372 14.0465 85.5371 12.1788 86.81 11.0751C94.1077 4.19837 103.612 0.46286 113.625 0.46286C123.468 0.46286 132.887 4.11347 140.1 10.8204C141.288 11.9241 141.373 13.7918 140.27 14.9804C139.167 16.169 137.3 16.2539 136.112 15.1502C130.002 9.54694 122.026 6.40572 113.625 6.40572C105.139 6.40572 97.0777 9.63183 90.8831 15.4049C90.2891 15.9143 89.5254 16.169 88.8466 16.169Z" fill="#060000"/>
<path d="M108.958 50.8922C115.191 50.8922 120.244 45.8369 120.244 39.6008C120.244 33.3647 115.191 28.3094 108.958 28.3094C102.725 28.3094 97.6717 33.3647 97.6717 39.6008C97.6717 45.8369 102.725 50.8922 108.958 50.8922Z" fill="#FFFEFF"/>
<path d="M121.432 63.8816C123.588 63.8816 125.335 62.1332 125.335 59.9763C125.335 57.8195 123.588 56.071 121.432 56.071C119.276 56.071 117.528 57.8195 117.528 59.9763C117.528 62.1332 119.276 63.8816 121.432 63.8816Z" fill="#FFFEFF"/>
</svg>
