<svg width="141" height="76" viewBox="0 0 141 76" fill="none" xmlns="http://www.w3.org/2000/svg">
<path d="M27.2383 75.2661C42.2352 75.2661 54.3926 63.1029 54.3926 48.0987C54.3926 33.0946 42.2352 20.9314 27.2383 20.9314C12.2414 20.9314 0.0839844 33.0946 0.0839844 48.0987C0.0839844 63.1029 12.2414 75.2661 27.2383 75.2661Z" fill="#060000"/>
<path d="M31.9054 48.0988C38.1385 48.0988 43.1914 43.0434 43.1914 36.8073C43.1914 30.5712 38.1385 25.5159 31.9054 25.5159C25.6723 25.5159 20.6194 30.5712 20.6194 36.8073C20.6194 43.0434 25.6723 48.0988 31.9054 48.0988Z" fill="#FFFEFF"/>
<path d="M19.4314 61.0882C21.5872 61.0882 23.3348 59.3397 23.3348 57.1828C23.3348 55.026 21.5872 53.2775 19.4314 53.2775C17.2756 53.2775 15.528 55.026 15.528 57.1828C15.528 59.3397 17.2756 61.0882 19.4314 61.0882Z" fill="#FFFEFF"/>
<path d="M112.944 75.2661C127.941 75.2661 140.098 63.1029 140.098 48.0987C140.098 33.0946 127.941 20.9314 112.944 20.9314C97.9471 20.9314 85.7897 33.0946 85.7897 48.0987C85.7897 63.1029 97.9471 75.2661 112.944 75.2661Z" fill="#060000"/>
<path d="M108.277 48.0988C114.51 48.0988 119.563 43.0434 119.563 36.8073C119.563 30.5712 114.51 25.5159 108.277 25.5159C102.044 25.5159 96.9909 30.5712 96.9909 36.8073C96.9909 43.0434 102.044 48.0988 108.277 48.0988Z" fill="#FFFEFF"/>
<path d="M120.836 61.0882C122.992 61.0882 124.739 59.3397 124.739 57.1828C124.739 55.026 122.992 53.2775 120.836 53.2775C118.68 53.2775 116.932 55.026 116.932 57.1828C116.932 59.3397 118.68 61.0882 120.836 61.0882Z" fill="#FFFEFF"/>
<path d="M56.6837 33.0718C56.5989 33.0718 56.4291 33.0718 56.3443 33.0718C54.732 32.902 17.4797 28.1477 2.62973 5.22526C1.6963 3.86689 2.12059 1.99909 3.4783 1.15011C4.83602 0.216236 6.70286 0.640725 7.55143 1.99909C20.9589 22.5444 56.6837 27.1289 57.0231 27.2138C58.6354 27.3836 59.8235 28.9118 59.6537 30.5248C59.484 31.9681 58.2112 33.0718 56.6837 33.0718Z" fill="#060000"/>
<path d="M83.838 33.0718C82.3954 33.0718 81.0377 31.9681 80.868 30.4399C80.6983 28.8269 81.8014 27.2988 83.4986 27.129C83.838 27.0441 119.563 22.4596 132.97 1.91425C133.904 0.555887 135.686 0.131397 137.043 1.06527C138.401 1.99915 138.825 3.782 137.892 5.14037C122.957 28.0628 85.7048 32.8171 84.1774 32.9869C84.0925 33.0718 83.9229 33.0718 83.838 33.0718Z" fill="#060000"/>
</svg>
