<svg width="153" height="59" viewBox="0 0 153 59" fill="none" xmlns="http://www.w3.org/2000/svg">
<path d="M58.3232 21.0351C57.3897 21.0351 56.4563 20.6106 55.8623 19.7616C49.6677 11.102 41.776 6.34776 33.5448 6.34776C25.3985 6.34776 17.5917 11.0171 11.4819 19.422C10.5485 20.7804 8.68164 21.0351 7.32393 20.1012C5.96621 19.1673 5.7117 17.2996 6.64513 15.9412C13.9428 5.92326 23.4468 0.404907 33.5448 0.404907C43.8125 0.404907 53.4014 6.09306 60.6991 16.3657C61.6325 17.7241 61.378 19.5918 60.0203 20.5257C59.5112 20.8653 58.9172 21.0351 58.3232 21.0351Z" fill="#060000"/>
<path d="M94.4722 21.0351C93.8782 21.0351 93.2842 20.8653 92.7751 20.5257C91.4174 19.5918 91.1628 17.7241 92.0962 16.3657C99.3939 6.09306 109.068 0.404907 119.25 0.404907C129.348 0.404907 138.853 5.92326 146.15 15.9412C147.084 17.2996 146.829 19.1673 145.471 20.1012C144.114 21.0351 142.247 20.7804 141.313 19.422C135.204 11.0171 127.312 6.34776 119.25 6.34776C111.019 6.34776 103.043 11.102 96.9331 19.7616C96.2543 20.6106 95.4057 21.0351 94.4722 21.0351Z" fill="#060000"/>
<path d="M55.1834 58.4751C53.8257 58.4751 52.5528 57.5412 52.2982 56.0979C50.0071 45.5706 42.2851 38.1845 33.5448 38.1845C24.8046 38.1845 17.0826 45.5706 14.7914 56.0979C14.6217 57.0318 14.0277 57.7959 13.1791 58.1355C12.3306 58.56 11.3971 58.56 10.5486 58.1355L1.80825 53.7208C0.365675 52.9567 -0.228325 51.1739 0.53539 49.7306C1.2991 48.2873 3.08117 47.693 4.52374 48.4571L10.0395 51.2588C13.858 39.9673 23.1074 32.3265 33.5448 32.3265C45.0854 32.3265 55.1834 41.6653 58.0686 54.9094C58.408 56.5224 57.3898 58.1355 55.7775 58.4751C55.5229 58.4751 55.3531 58.4751 55.1834 58.4751Z" fill="#060000"/>
<path d="M97.4422 58.4751C97.2725 58.4751 97.0179 58.4751 96.8482 58.3902C95.2359 58.0506 94.2176 56.4375 94.5571 54.8245C97.4422 41.4955 107.54 32.2416 119.081 32.2416C129.603 32.2416 138.852 39.8824 142.586 51.1739L148.102 48.3723C149.544 47.6082 151.327 48.2025 152.09 49.6457C152.854 51.089 152.26 52.8718 150.817 53.6359L142.077 58.2204C141.228 58.6449 140.295 58.6449 139.447 58.2204C138.598 57.7959 138.004 57.0318 137.834 56.1828C135.543 45.6555 127.821 38.2694 119.081 38.2694C110.341 38.2694 102.619 45.6555 100.327 56.1828C100.073 57.5412 98.7999 58.4751 97.4422 58.4751Z" fill="#060000"/>
</svg>
