<svg width="141" height="78" viewBox="0 0 141 78" fill="none" xmlns="http://www.w3.org/2000/svg">
<path d="M52.2382 15.7029C51.4745 15.7029 50.7957 15.4482 50.2017 14.9388C44.0071 9.16572 35.9457 5.93962 27.4599 5.93962C19.1439 5.93962 11.1674 9.08084 4.97281 14.6841C3.78481 15.7878 1.91793 15.7029 0.814785 14.5143C-0.288358 13.3257 -0.203439 11.4579 0.984561 10.3543C8.19742 3.73223 17.6165 -0.00323486 27.4599 -0.00323486C37.4731 -0.00323486 46.9771 3.73227 54.2748 10.609C55.4628 11.7127 55.5477 13.5804 54.4446 14.769C53.7657 15.3633 53.0019 15.7029 52.2382 15.7029Z" fill="#060000"/>
<path d="M113.166 77.5935C128.163 77.5935 140.32 65.4302 140.32 50.4261C140.32 35.422 128.163 23.2588 113.166 23.2588C98.1688 23.2588 86.0114 35.422 86.0114 50.4261C86.0114 65.4302 98.1688 77.5935 113.166 77.5935Z" fill="#060000"/>
<path d="M88.3875 15.7029C87.6237 15.7029 86.7751 15.3633 86.1811 14.769C85.0779 13.5804 85.078 11.7127 86.3509 10.609C93.6486 3.73227 103.153 -0.00323486 113.166 -0.00323486C123.009 -0.00323486 132.428 3.64734 139.641 10.3543C140.829 11.4579 140.914 13.3257 139.811 14.5143C138.708 15.7029 136.841 15.7878 135.653 14.6841C129.543 9.08084 121.567 5.93962 113.166 5.93962C104.68 5.93962 96.6185 9.16572 90.424 14.9388C89.83 15.4482 89.1512 15.7029 88.3875 15.7029Z" fill="#060000"/>
<path d="M108.499 50.4261C114.732 50.4261 119.785 45.3708 119.785 39.1347C119.785 32.8986 114.732 27.8433 108.499 27.8433C102.265 27.8433 97.2125 32.8986 97.2125 39.1347C97.2125 45.3708 102.265 50.4261 108.499 50.4261Z" fill="#FFFEFF"/>
<path d="M120.973 63.4155C123.128 63.4155 124.876 61.6671 124.876 59.5102C124.876 57.3534 123.128 55.6049 120.973 55.6049C118.817 55.6049 117.069 57.3534 117.069 59.5102C117.069 61.6671 118.817 63.4155 120.973 63.4155Z" fill="#FFFEFF"/>
<path d="M15.58 66.387C14.4769 66.387 13.3738 65.7078 12.8646 64.6041C12.1858 63.076 12.8646 61.378 14.392 60.6988C14.8163 60.529 23.5566 56.7935 34.9275 57.6425C31.2786 53.1429 24.5749 47.2001 13.8829 45.6719C12.2706 45.4172 11.1674 43.9739 11.3372 42.276C11.5917 40.6629 13.0343 39.5592 14.7314 39.729C35.4366 42.7005 43.4131 59.5951 43.7525 60.3592C44.2617 61.378 44.092 62.6515 43.3283 63.5005C42.5645 64.3494 41.4614 64.7739 40.3583 64.5192C27.7145 61.378 16.9377 66.0474 16.768 66.1323C16.3437 66.3021 16.0043 66.387 15.58 66.387Z" fill="#060000"/>
</svg>
