<svg width="142" height="79" viewBox="0 0 142 79" fill="none" xmlns="http://www.w3.org/2000/svg">
<path d="M28.2383 78.5935C43.2352 78.5935 55.3926 66.4302 55.3926 51.4261C55.3926 36.422 43.2352 24.2588 28.2383 24.2588C13.2414 24.2588 1.08398 36.422 1.08398 51.4261C1.08398 66.4302 13.2414 78.5935 28.2383 78.5935Z" fill="#060000"/>
<path d="M113.859 16.618C103.846 16.618 94.342 12.8824 87.0443 6.00571C85.8563 4.90203 85.7714 3.03431 86.8746 1.84574C87.9777 0.657165 89.8446 0.572257 91.0326 1.67593C97.2272 7.44899 105.289 10.6751 113.774 10.6751C122.09 10.6751 130.067 7.53388 136.261 1.93061C137.449 0.826941 139.316 0.911849 140.419 2.10042C141.523 3.28899 141.438 5.15672 140.25 6.26039C133.122 12.9673 123.703 16.618 113.859 16.618Z" fill="#060000"/>
<path d="M32.9054 51.4261C39.1385 51.4261 44.1914 46.3708 44.1914 40.1347C44.1914 33.8986 39.1385 28.8433 32.9054 28.8433C26.6724 28.8433 21.6194 33.8986 21.6194 40.1347C21.6194 46.3708 26.6724 51.4261 32.9054 51.4261Z" fill="#FFFEFF"/>
<path d="M20.4314 64.4155C22.5872 64.4155 24.3348 62.667 24.3348 60.5102C24.3348 58.3534 22.5872 56.6049 20.4314 56.6049C18.2756 56.6049 16.528 58.3534 16.528 60.5102C16.528 62.667 18.2756 64.4155 20.4314 64.4155Z" fill="#FFFEFF"/>
<path d="M113.944 78.5935C128.941 78.5935 141.098 66.4302 141.098 51.4261C141.098 36.422 128.941 24.2588 113.944 24.2588C98.9471 24.2588 86.7897 36.422 86.7897 51.4261C86.7897 66.4302 98.9471 78.5935 113.944 78.5935Z" fill="#060000"/>
<path d="M28.1535 16.6179C18.31 16.6179 8.89093 12.9673 1.67808 6.26035C0.490076 5.15667 0.405208 3.28895 1.50835 2.10038C2.61149 0.911807 4.47832 0.826899 5.66632 1.93057C11.776 7.53384 19.7526 10.6751 28.1535 10.6751C36.6392 10.6751 44.7006 7.44895 50.8952 1.67589C52.0832 0.572215 53.95 0.572226 55.0532 1.8457C56.1563 3.03427 56.1563 4.90199 54.8835 6.00566C47.6706 12.8824 38.1666 16.6179 28.1535 16.6179Z" fill="#060000"/>
<path d="M109.277 51.4261C115.51 51.4261 120.563 46.3708 120.563 40.1347C120.563 33.8986 115.51 28.8433 109.277 28.8433C103.044 28.8433 97.9909 33.8986 97.9909 40.1347C97.9909 46.3708 103.044 51.4261 109.277 51.4261Z" fill="#FFFEFF"/>
<path d="M121.836 64.4155C123.992 64.4155 125.739 62.667 125.739 60.5102C125.739 58.3534 123.992 56.6049 121.836 56.6049C119.68 56.6049 117.932 58.3534 117.932 60.5102C117.932 62.667 119.68 64.4155 121.836 64.4155Z" fill="#FFFEFF"/>
</svg>
