<svg width="160" height="57" viewBox="0 0 160 57" fill="none" xmlns="http://www.w3.org/2000/svg">
<path d="M62.026 15.7029C61.2623 15.7029 60.5835 15.4482 59.9895 14.9388C53.7949 9.16572 45.7335 5.93962 37.2478 5.93962C28.9318 5.93962 20.9552 9.08084 14.7606 14.6841C13.5726 15.7878 11.7058 15.7029 10.6026 14.5143C9.49947 13.3257 9.58432 11.4579 10.7723 10.3543C17.9852 3.73223 27.4043 -0.00323486 37.2478 -0.00323486C47.2609 -0.00323486 56.7649 3.73227 64.0626 10.609C65.2506 11.7127 65.3355 13.5804 64.2323 14.769C63.5535 15.3633 62.7897 15.7029 62.026 15.7029Z" fill="#060000"/>
<path d="M98.1751 15.7029C97.4114 15.7029 96.5628 15.3633 95.9688 14.769C94.8657 13.5804 94.8657 11.7127 96.1385 10.609C103.436 3.73227 112.94 -0.00323486 122.953 -0.00323486C132.797 -0.00323486 142.216 3.64734 149.429 10.3543C150.617 11.4579 150.702 13.3257 149.599 14.5143C148.495 15.7029 146.629 15.7878 145.441 14.6841C139.331 9.08084 131.354 5.93962 122.953 5.93962C114.468 5.93962 106.406 9.16572 100.212 14.9388C99.6177 15.4482 98.854 15.7029 98.1751 15.7029Z" fill="#060000"/>
<path d="M60.1592 56.0294H11.2814C10.5177 56.0294 9.75402 55.6898 9.16002 55.1805L1.01373 47.0302C-0.174274 45.8416 -0.174274 43.9739 1.01373 42.7853C2.20173 41.5967 4.06858 41.5967 5.25658 42.7853L12.5543 50.0866H60.1592C61.7715 50.0866 63.1292 51.4449 63.1292 53.058C63.1292 54.6711 61.8563 56.0294 60.1592 56.0294Z" fill="#060000"/>
<path d="M148.835 56.0294H99.9572C98.3449 56.0294 96.9872 54.6711 96.9872 53.058C96.9872 51.445 98.3449 50.0866 99.9572 50.0866H147.562L154.86 42.7853C156.048 41.5968 157.915 41.5968 159.103 42.7853C160.291 43.9739 160.291 45.8417 159.103 47.0302L150.956 55.1805C150.362 55.7747 149.599 56.0294 148.835 56.0294Z" fill="#060000"/>
</svg>
