<svg width="142" height="78" viewBox="0 0 142 78" fill="none" xmlns="http://www.w3.org/2000/svg">
<path d="M27.9192 77.5935C42.9161 77.5935 55.0734 65.4302 55.0734 50.4261C55.0734 35.422 42.9161 23.2588 27.9192 23.2588C12.9223 23.2588 0.764873 35.422 0.764873 50.4261C0.764873 65.4302 12.9223 77.5935 27.9192 77.5935Z" fill="#060000"/>
<path d="M52.6974 15.7029C51.9337 15.7029 51.2549 15.4482 50.6609 14.9388C44.4663 9.16572 36.4049 5.93962 27.9192 5.93962C19.6032 5.93962 11.6266 9.08084 5.43202 14.6841C4.24402 15.7878 2.37716 15.7029 1.27401 14.5143C0.170869 13.3257 0.255724 11.4579 1.44372 10.3543C8.65658 3.73223 18.0757 -0.00323486 27.9192 -0.00323486C37.9323 -0.00323486 47.4363 3.73227 54.734 10.609C55.922 11.7127 56.0069 13.5804 54.9037 14.769C54.2249 15.3633 53.4612 15.7029 52.6974 15.7029Z" fill="#060000"/>
<path d="M32.5863 50.4261C38.8194 50.4261 43.8723 45.3708 43.8723 39.1347C43.8723 32.8986 38.8194 27.8433 32.5863 27.8433C26.3532 27.8433 21.3003 32.8986 21.3003 39.1347C21.3003 45.3708 26.3532 50.4261 32.5863 50.4261Z" fill="#FFFEFF"/>
<path d="M20.0274 63.4155C22.1832 63.4155 23.9309 61.6671 23.9309 59.5102C23.9309 57.3534 22.1832 55.6049 20.0274 55.6049C17.8716 55.6049 16.124 57.3534 16.124 59.5102C16.124 61.6671 17.8716 63.4155 20.0274 63.4155Z" fill="#FFFEFF"/>
<path d="M113.625 77.5935C128.622 77.5935 140.779 65.4302 140.779 50.4261C140.779 35.422 128.622 23.2588 113.625 23.2588C98.628 23.2588 86.4706 35.422 86.4706 50.4261C86.4706 65.4302 98.628 77.5935 113.625 77.5935Z" fill="#060000"/>
<path d="M88.8466 15.7029C88.0829 15.7029 87.2343 15.3633 86.6403 14.769C85.5372 13.5804 85.5372 11.7127 86.81 10.609C94.1077 3.73227 103.612 -0.00323486 113.625 -0.00323486C123.468 -0.00323486 132.887 3.64734 140.1 10.3543C141.288 11.4579 141.373 13.3257 140.27 14.5143C139.167 15.7029 137.3 15.7878 136.112 14.6841C130.002 9.08084 122.026 5.93962 113.625 5.93962C105.139 5.93962 97.0777 9.16572 90.8831 14.9388C90.2891 15.4482 89.5254 15.7029 88.8466 15.7029Z" fill="#060000"/>
<path d="M108.958 50.4261C115.191 50.4261 120.244 45.3708 120.244 39.1347C120.244 32.8986 115.191 27.8433 108.958 27.8433C102.725 27.8433 97.6717 32.8986 97.6717 39.1347C97.6717 45.3708 102.725 50.4261 108.958 50.4261Z" fill="#FFFEFF"/>
<path d="M121.432 63.4155C123.588 63.4155 125.335 61.6671 125.335 59.5102C125.335 57.3534 123.588 55.6049 121.432 55.6049C119.276 55.6049 117.528 57.3534 117.528 59.5102C117.528 61.6671 119.276 63.4155 121.432 63.4155Z" fill="#FFFEFF"/>
</svg>
