<svg width="141" height="79" viewBox="0 0 141 79" fill="none" xmlns="http://www.w3.org/2000/svg">
<path d="M27.46 78.0245C42.4569 78.0245 54.6143 65.8613 54.6143 50.8572C54.6143 35.853 42.4569 23.6898 27.46 23.6898C12.4631 23.6898 0.305725 35.853 0.305725 50.8572C0.305725 65.8613 12.4631 78.0245 27.46 78.0245Z" fill="#060000"/>
<path d="M52.2382 16.1339C51.4745 16.1339 50.7957 15.8792 50.2017 15.3698C44.0071 9.59675 35.9457 6.37062 27.4599 6.37062C19.1439 6.37062 11.1674 9.51184 4.97281 15.1151C3.78481 16.2188 1.91793 16.1339 0.814785 14.9453C-0.288358 13.7567 -0.203439 11.889 0.984561 10.7853C8.19742 4.16326 17.6165 0.427765 27.4599 0.427765C37.4731 0.427765 46.9771 4.16327 54.2748 11.04C55.4628 12.1437 55.5477 14.0114 54.4446 15.2C53.7657 15.8792 53.0019 16.1339 52.2382 16.1339Z" fill="#060000"/>
<path d="M32.1272 50.8572C38.3603 50.8572 43.4132 45.8018 43.4132 39.5657C43.4132 33.3297 38.3603 28.2743 32.1272 28.2743C25.8941 28.2743 20.8411 33.3297 20.8411 39.5657C20.8411 45.8018 25.8941 50.8572 32.1272 50.8572Z" fill="#FFFEFF"/>
<path d="M19.5683 63.8465C21.7241 63.8465 23.4718 62.0981 23.4718 59.9412C23.4718 57.7844 21.7241 56.0359 19.5683 56.0359C17.4125 56.0359 15.6649 57.7844 15.6649 59.9412C15.6649 62.0981 17.4125 63.8465 19.5683 63.8465Z" fill="#FFFEFF"/>
<path d="M113.166 78.0245C128.163 78.0245 140.32 65.8613 140.32 50.8572C140.32 35.853 128.163 23.6898 113.166 23.6898C98.1688 23.6898 86.0114 35.853 86.0114 50.8572C86.0114 65.8613 98.1688 78.0245 113.166 78.0245Z" fill="#060000"/>
<path d="M88.3875 16.1339C87.6237 16.1339 86.7751 15.7943 86.1811 15.2C85.0779 14.0114 85.078 12.1437 86.3509 11.04C93.6486 4.16327 103.153 0.427765 113.166 0.427765C123.009 0.427765 132.428 4.07836 139.641 10.7853C140.829 11.889 140.914 13.7567 139.811 14.9453C138.708 16.1339 136.841 16.2188 135.653 15.1151C129.543 9.51184 121.567 6.37062 113.166 6.37062C104.68 6.37062 96.6185 9.59675 90.424 15.3698C89.83 15.8792 89.1512 16.1339 88.3875 16.1339Z" fill="#060000"/>
<path d="M108.499 50.8572C114.732 50.8572 119.785 45.8018 119.785 39.5657C119.785 33.3297 114.732 28.2743 108.499 28.2743C102.265 28.2743 97.2125 33.3297 97.2125 39.5657C97.2125 45.8018 102.265 50.8572 108.499 50.8572Z" fill="#FFFEFF"/>
<path d="M120.973 63.8465C123.128 63.8465 124.876 62.0981 124.876 59.9412C124.876 57.7844 123.128 56.0359 120.973 56.0359C118.817 56.0359 117.069 57.7844 117.069 59.9412C117.069 62.0981 118.817 63.8465 120.973 63.8465Z" fill="#FFFEFF"/>
</svg>
