<svg width="161" height="77" viewBox="0 0 161 77" fill="none" xmlns="http://www.w3.org/2000/svg">
<path d="M10.1688 47.0367C10.0839 47.7159 10.084 48.48 10.084 49.1592C10.084 64.1861 22.2185 76.3265 37.2382 76.3265C52.258 76.3265 64.3925 64.1861 64.3925 49.1592C64.3925 48.48 64.3925 47.7159 64.3076 47.0367H10.1688Z" fill="#060000"/>
<path d="M30.7891 47.0367C31.468 52.64 36.22 56.9698 41.9902 56.9698C47.7605 56.9698 52.5125 52.64 53.1914 47.0367H30.7891Z" fill="#FFFEFF"/>
<path d="M29.4314 70.0441C31.5872 70.0441 33.3348 68.2956 33.3348 66.1388C33.3348 63.9819 31.5872 62.2335 29.4314 62.2335C27.2756 62.2335 25.528 63.9819 25.528 66.1388C25.528 68.2956 27.2756 70.0441 29.4314 70.0441Z" fill="#FFFEFF"/>
<path d="M95.8745 47.0367C95.7897 47.7159 95.7897 48.48 95.7897 49.1592C95.7897 64.1861 107.924 76.3265 122.944 76.3265C137.964 76.3265 150.098 64.1861 150.098 49.1592C150.098 48.48 150.098 47.7159 150.013 47.0367H95.8745Z" fill="#060000"/>
<path d="M107.161 47.0367C107.839 52.64 112.591 56.9698 118.362 56.9698C124.132 56.9698 128.884 52.64 129.563 47.0367H107.161Z" fill="#FFFEFF"/>
<path d="M130.836 70.0441C132.991 70.0441 134.739 68.2956 134.739 66.1388C134.739 63.9819 132.991 62.2335 130.836 62.2335C128.68 62.2335 126.932 63.9819 126.932 66.1388C126.932 68.2956 128.68 70.0441 130.836 70.0441Z" fill="#FFFEFF"/>
<path d="M62.0166 16.1339C61.2529 16.1339 60.574 15.8792 59.98 15.3698C53.7855 9.59675 45.724 6.37062 37.2383 6.37062C28.9223 6.37062 20.9458 9.51184 14.7512 15.1151C13.5632 16.2188 11.6963 16.1339 10.5932 14.9453C9.49002 13.7567 9.57488 11.889 10.7629 10.7853C17.9757 4.16326 27.3949 0.427765 37.2383 0.427765C47.2515 0.427765 56.7555 4.16327 64.0532 11.04C65.2412 12.1437 65.326 14.0114 64.2229 15.2C63.6289 15.8792 62.8652 16.1339 62.0166 16.1339Z" fill="#060000"/>
<path d="M122.689 16.1339C112.846 16.1339 103.427 12.4833 96.214 5.77633C95.026 4.67266 94.9411 2.80491 96.0443 1.61634C97.1474 0.427768 99.0143 0.34286 100.202 1.44653C106.312 7.0498 114.289 10.191 122.689 10.191C131.175 10.191 139.237 6.96491 145.431 1.19185C146.619 0.0881761 148.486 0.0881863 149.589 1.36166C150.692 2.55023 150.692 4.41798 149.419 5.52165C142.207 12.3984 132.703 16.1339 122.689 16.1339Z" fill="#060000"/>
<path d="M60.4043 50.0082H11.5266C10.7629 50.0082 9.99915 49.6686 9.40515 49.1592L1.25883 41.009C0.0708284 39.8204 0.0708284 37.9527 1.25883 36.7641C2.44683 35.5755 4.31369 35.5755 5.50169 36.7641L12.7994 44.0653H60.4043C62.0166 44.0653 63.3743 45.4237 63.3743 47.0368C63.3743 48.6498 62.0166 50.0082 60.4043 50.0082Z" fill="#060000"/>
<path d="M148.995 50.0082H94.9411C93.3288 50.0082 91.9711 48.6498 91.9711 47.0368C91.9711 45.4237 93.3288 44.0653 94.9411 44.0653H147.722L155.02 36.7641C156.208 35.5755 158.075 35.5755 159.178 36.7641C160.281 37.9527 160.366 39.8204 159.178 40.9241L151.032 49.0743C150.523 49.7535 149.759 50.0082 148.995 50.0082Z" fill="#060000"/>
</svg>
